<mxfile host="drawio-plugin" modified="2023-11-18T20:03:07.353Z" agent="5.0 (Windows NT 6.2; Win64; x64) AppleWebKit/537.36 (KHTML, like Gecko) Chrome/104.0.5112.102 Safari/537.36" etag="PKrKW6W-uhD-KWhOToyh" version="20.5.3" type="embed"><diagram name="Страница 1" id="_2W2M9_JTX8XIDgdSzGC"><mxGraphModel dx="718" dy="735" grid="1" gridSize="10" guides="1" tooltips="1" connect="1" arrows="1" fold="1" page="1" pageScale="1" pageWidth="827" pageHeight="1169" math="0" shadow="0"><root><mxCell id="0"/><mxCell id="1" parent="0"/><mxCell id="EWmg97Q51qCGuD6CWV9j-9" value="" style="whiteSpace=wrap;html=1;shape=mxgraph.basic.document" parent="1" vertex="1"><mxGeometry x="559" y="40" width="230" height="280" as="geometry"/></mxCell><mxCell id="P8oaW9SBSXr5ERGmaJX7-1" value="" style="whiteSpace=wrap;html=1;shape=mxgraph.basic.document" parent="1" vertex="1"><mxGeometry x="39" y="40" width="240" height="280" as="geometry"/></mxCell><mxCell id="EWmg97Q51qCGuD6CWV9j-2" value="" style="whiteSpace=wrap;html=1;shape=mxgraph.basic.document" parent="1" vertex="1"><mxGeometry x="319" y="40" width="210" height="280" as="geometry"/></mxCell><mxCell id="EWmg97Q51qCGuD6CWV9j-1" value="TicketPlace" style="text;html=1;align=center;verticalAlign=middle;resizable=0;points=[];autosize=1;strokeColor=none;fillColor=none;" parent="1" vertex="1"><mxGeometry x="114" y="50" width="90" height="30" as="geometry"/></mxCell><mxCell id="P8oaW9SBSXr5ERGmaJX7-3" value="Station" style="swimlane;childLayout=stackLayout;horizontal=1;startSize=50;horizontalStack=0;rounded=1;fontSize=14;fontStyle=0;strokeWidth=2;resizeParent=0;resizeLast=1;shadow=0;dashed=0;align=center;arcSize=4;whiteSpace=wrap;html=1;" parent="1" vertex="1"><mxGeometry x="589" y="210" width="160" height="90" as="geometry"/></mxCell><mxCell id="P8oaW9SBSXr5ERGmaJX7-4" value="&lt;div&gt;station_name: string&lt;/div&gt;" style="align=left;strokeColor=none;fillColor=none;spacingLeft=4;fontSize=12;verticalAlign=top;resizable=0;rotatable=0;part=1;html=1;" parent="P8oaW9SBSXr5ERGmaJX7-3" vertex="1"><mxGeometry y="50" width="160" height="40" as="geometry"/></mxCell><mxCell id="P8oaW9SBSXr5ERGmaJX7-5" value="Route" style="swimlane;childLayout=stackLayout;horizontal=1;startSize=50;horizontalStack=0;rounded=1;fontSize=14;fontStyle=0;strokeWidth=2;resizeParent=0;resizeLast=1;shadow=0;dashed=0;align=center;arcSize=4;whiteSpace=wrap;html=1;" parent="1" vertex="1"><mxGeometry x="589" y="80" width="160" height="100" as="geometry"/></mxCell><mxCell id="P8oaW9SBSXr5ERGmaJX7-6" value="_id: objectId&lt;div&gt;stations[{}]: object&lt;/div&gt;&lt;div&gt;&lt;br&gt;&lt;/div&gt;&lt;div&gt;&lt;br&gt;&lt;/div&gt;" style="align=left;strokeColor=none;fillColor=none;spacingLeft=4;fontSize=12;verticalAlign=top;resizable=0;rotatable=0;part=1;html=1;" parent="P8oaW9SBSXr5ERGmaJX7-5" vertex="1"><mxGeometry y="50" width="160" height="50" as="geometry"/></mxCell><mxCell id="P8oaW9SBSXr5ERGmaJX7-9" value="TicketPlace" style="swimlane;childLayout=stackLayout;horizontal=1;startSize=50;horizontalStack=0;rounded=1;fontSize=14;fontStyle=0;strokeWidth=2;resizeParent=0;resizeLast=1;shadow=0;dashed=0;align=center;arcSize=4;whiteSpace=wrap;html=1;" parent="1" vertex="1"><mxGeometry x="54" y="100" width="205" height="200" as="geometry"><mxRectangle x="54" y="100" width="110" height="50" as="alternateBounds"/></mxGeometry></mxCell><mxCell id="P8oaW9SBSXr5ERGmaJX7-10" value="&lt;pre&gt;_id: objectId&lt;br&gt;train_id: objectId&lt;br&gt;price: double&lt;br&gt;place: int&lt;br&gt;is_free_place: bool&lt;br&gt;&lt;br&gt;&lt;/pre&gt;" style="align=left;strokeColor=none;fillColor=none;spacingLeft=4;fontSize=12;verticalAlign=top;resizable=0;rotatable=0;part=1;html=1;" parent="P8oaW9SBSXr5ERGmaJX7-9" vertex="1"><mxGeometry y="50" width="205" height="150" as="geometry"/></mxCell><mxCell id="P8oaW9SBSXr5ERGmaJX7-19" value="" style="edgeStyle=entityRelationEdgeStyle;fontSize=12;html=1;endArrow=ERoneToMany;startArrow=ERmandOne;rounded=0;startFill=0;" parent="1" source="P8oaW9SBSXr5ERGmaJX7-5" target="P8oaW9SBSXr5ERGmaJX7-7" edge="1"><mxGeometry width="100" height="100" relative="1" as="geometry"><mxPoint x="279" y="330" as="sourcePoint"/><mxPoint x="379" y="230" as="targetPoint"/></mxGeometry></mxCell><mxCell id="P8oaW9SBSXr5ERGmaJX7-7" value="Train" style="swimlane;childLayout=stackLayout;horizontal=1;startSize=50;horizontalStack=0;rounded=1;fontSize=14;fontStyle=0;strokeWidth=2;resizeParent=0;resizeLast=1;shadow=0;dashed=0;align=center;arcSize=4;whiteSpace=wrap;html=1;" parent="1" vertex="1"><mxGeometry x="344" y="100" width="160" height="200" as="geometry"/></mxCell><mxCell id="P8oaW9SBSXr5ERGmaJX7-8" value="&lt;div&gt;_id: objectId&lt;/div&gt;&lt;div&gt;name: string&lt;br&gt;&lt;/div&gt;&lt;div&gt;route_id: objectId&lt;/div&gt;&lt;div&gt;departure_date:date&lt;/div&gt;&lt;div&gt;tickets[]: objectId&lt;/div&gt;&lt;div&gt;place_count: int&lt;br&gt;&lt;/div&gt;&lt;div&gt;&lt;br&gt;&lt;/div&gt;" style="align=left;strokeColor=none;fillColor=none;spacingLeft=4;fontSize=12;verticalAlign=top;resizable=0;rotatable=0;part=1;html=1;" parent="P8oaW9SBSXr5ERGmaJX7-7" vertex="1"><mxGeometry y="50" width="160" height="150" as="geometry"/></mxCell><mxCell id="P8oaW9SBSXr5ERGmaJX7-17" value="" style="edgeStyle=entityRelationEdgeStyle;fontSize=12;html=1;endArrow=ERzeroToMany;startArrow=ERmandOne;rounded=0;" parent="1" source="P8oaW9SBSXr5ERGmaJX7-7" target="P8oaW9SBSXr5ERGmaJX7-9" edge="1"><mxGeometry width="100" height="100" relative="1" as="geometry"><mxPoint x="239" y="330" as="sourcePoint"/><mxPoint x="339" y="230" as="targetPoint"/></mxGeometry></mxCell><mxCell id="EWmg97Q51qCGuD6CWV9j-4" value="" style="edgeStyle=orthogonalEdgeStyle;fontSize=12;html=1;endArrow=ERoneToMany;startArrow=ERmandOne;rounded=0;startFill=0;exitX=0.5;exitY=1;exitDx=0;exitDy=0;" parent="1" source="P8oaW9SBSXr5ERGmaJX7-6" target="P8oaW9SBSXr5ERGmaJX7-3" edge="1"><mxGeometry width="100" height="100" relative="1" as="geometry"><mxPoint x="639" y="250" as="sourcePoint"/><mxPoint x="739" y="270" as="targetPoint"/></mxGeometry></mxCell><mxCell id="EWmg97Q51qCGuD6CWV9j-10" value="Train" style="text;html=1;align=center;verticalAlign=middle;resizable=0;points=[];autosize=1;strokeColor=none;fillColor=none;" parent="1" vertex="1"><mxGeometry x="399" y="50" width="50" height="30" as="geometry"/></mxCell><mxCell id="EWmg97Q51qCGuD6CWV9j-11" value="Route" style="text;html=1;align=center;verticalAlign=middle;resizable=0;points=[];autosize=1;strokeColor=none;fillColor=none;" parent="1" vertex="1"><mxGeometry x="639" y="50" width="60" height="30" as="geometry"/></mxCell><mxCell id="EWmg97Q51qCGuD6CWV9j-28" value="TicketPlaceService" style="swimlane;fontStyle=1;align=center;verticalAlign=top;childLayout=stackLayout;horizontal=1;startSize=26;horizontalStack=0;resizeParent=1;resizeParentMax=0;resizeLast=0;collapsible=1;marginBottom=0;whiteSpace=wrap;html=1;" parent="1" vertex="1"><mxGeometry x="39" y="400" width="401" height="190" as="geometry"/></mxCell><mxCell id="EWmg97Q51qCGuD6CWV9j-30" value="" style="line;strokeWidth=1;fillColor=none;align=left;verticalAlign=middle;spacingTop=-1;spacingLeft=3;spacingRight=3;rotatable=0;labelPosition=right;points=[];portConstraint=eastwest;strokeColor=inherit;" parent="EWmg97Q51qCGuD6CWV9j-28" vertex="1"><mxGeometry y="26" width="401" height="8" as="geometry"/></mxCell><mxCell id="EWmg97Q51qCGuD6CWV9j-31" value="+ pay(type): " style="text;strokeColor=none;fillColor=none;align=left;verticalAlign=top;spacingLeft=4;spacingRight=4;overflow=hidden;rotatable=0;points=[[0,0.5],[1,0.5]];portConstraint=eastwest;whiteSpace=wrap;html=1;" parent="EWmg97Q51qCGuD6CWV9j-28" vertex="1"><mxGeometry y="34" width="401" height="26" as="geometry"/></mxCell><mxCell id="EWmg97Q51qCGuD6CWV9j-39" value="+ change_status_place(type)" style="text;strokeColor=none;fillColor=none;align=left;verticalAlign=top;spacingLeft=4;spacingRight=4;overflow=hidden;rotatable=0;points=[[0,0.5],[1,0.5]];portConstraint=eastwest;whiteSpace=wrap;html=1;" parent="EWmg97Q51qCGuD6CWV9j-28" vertex="1"><mxGeometry y="60" width="401" height="26" as="geometry"/></mxCell><mxCell id="EWmg97Q51qCGuD6CWV9j-41" value="+ choise_place(place: Int)" style="text;strokeColor=none;fillColor=none;align=left;verticalAlign=top;spacingLeft=4;spacingRight=4;overflow=hidden;rotatable=0;points=[[0,0.5],[1,0.5]];portConstraint=eastwest;whiteSpace=wrap;html=1;" parent="EWmg97Q51qCGuD6CWV9j-28" vertex="1"><mxGeometry y="86" width="401" height="26" as="geometry"/></mxCell><mxCell id="EWmg97Q51qCGuD6CWV9j-49" value="+ add_ticket(ticket: TicketPlace)" style="text;strokeColor=none;fillColor=none;align=left;verticalAlign=top;spacingLeft=4;spacingRight=4;overflow=hidden;rotatable=0;points=[[0,0.5],[1,0.5]];portConstraint=eastwest;whiteSpace=wrap;html=1;" parent="EWmg97Q51qCGuD6CWV9j-28" vertex="1"><mxGeometry y="112" width="401" height="26" as="geometry"/></mxCell><mxCell id="EWmg97Q51qCGuD6CWV9j-50" value="+ delete_ticket(ticket: TicketPlace)" style="text;strokeColor=none;fillColor=none;align=left;verticalAlign=top;spacingLeft=4;spacingRight=4;overflow=hidden;rotatable=0;points=[[0,0.5],[1,0.5]];portConstraint=eastwest;whiteSpace=wrap;html=1;" parent="EWmg97Q51qCGuD6CWV9j-28" vertex="1"><mxGeometry y="138" width="401" height="26" as="geometry"/></mxCell><mxCell id="EWmg97Q51qCGuD6CWV9j-51" value="+ update_ticket(ticket: TicketPlace)" style="text;strokeColor=none;fillColor=none;align=left;verticalAlign=top;spacingLeft=4;spacingRight=4;overflow=hidden;rotatable=0;points=[[0,0.5],[1,0.5]];portConstraint=eastwest;whiteSpace=wrap;html=1;" parent="EWmg97Q51qCGuD6CWV9j-28" vertex="1"><mxGeometry y="164" width="401" height="26" as="geometry"/></mxCell><mxCell id="EWmg97Q51qCGuD6CWV9j-32" value="TrainService" style="swimlane;fontStyle=1;align=center;verticalAlign=top;childLayout=stackLayout;horizontal=1;startSize=26;horizontalStack=0;resizeParent=1;resizeParentMax=0;resizeLast=0;collapsible=1;marginBottom=0;whiteSpace=wrap;html=1;" parent="1" vertex="1"><mxGeometry x="39" y="640" width="401" height="164" as="geometry"/></mxCell><mxCell id="EWmg97Q51qCGuD6CWV9j-33" value="" style="line;strokeWidth=1;fillColor=none;align=left;verticalAlign=middle;spacingTop=-1;spacingLeft=3;spacingRight=3;rotatable=0;labelPosition=right;points=[];portConstraint=eastwest;strokeColor=inherit;" parent="EWmg97Q51qCGuD6CWV9j-32" vertex="1"><mxGeometry y="26" width="401" height="8" as="geometry"/></mxCell><mxCell id="EWmg97Q51qCGuD6CWV9j-34" value="+ get_trains_by_date_and_dep_dest_location(type): -&amp;gt; list[Train]" style="text;strokeColor=none;fillColor=none;align=left;verticalAlign=top;spacingLeft=4;spacingRight=4;overflow=hidden;rotatable=0;points=[[0,0.5],[1,0.5]];portConstraint=eastwest;whiteSpace=wrap;html=1;" parent="EWmg97Q51qCGuD6CWV9j-32" vertex="1"><mxGeometry y="34" width="401" height="26" as="geometry"/></mxCell><mxCell id="EWmg97Q51qCGuD6CWV9j-40" value="+ get_tickets_by_train(train: Train): -&amp;gt; list[TicketPlace]" style="text;strokeColor=none;fillColor=none;align=left;verticalAlign=top;spacingLeft=4;spacingRight=4;overflow=hidden;rotatable=0;points=[[0,0.5],[1,0.5]];portConstraint=eastwest;whiteSpace=wrap;html=1;" parent="EWmg97Q51qCGuD6CWV9j-32" vertex="1"><mxGeometry y="60" width="401" height="26" as="geometry"/></mxCell><mxCell id="EWmg97Q51qCGuD6CWV9j-46" value="+ add_train(train: Train)" style="text;strokeColor=none;fillColor=none;align=left;verticalAlign=top;spacingLeft=4;spacingRight=4;overflow=hidden;rotatable=0;points=[[0,0.5],[1,0.5]];portConstraint=eastwest;whiteSpace=wrap;html=1;" parent="EWmg97Q51qCGuD6CWV9j-32" vertex="1"><mxGeometry y="86" width="401" height="26" as="geometry"/></mxCell><mxCell id="EWmg97Q51qCGuD6CWV9j-47" value="+ delete_train(train: Train)" style="text;strokeColor=none;fillColor=none;align=left;verticalAlign=top;spacingLeft=4;spacingRight=4;overflow=hidden;rotatable=0;points=[[0,0.5],[1,0.5]];portConstraint=eastwest;whiteSpace=wrap;html=1;" parent="EWmg97Q51qCGuD6CWV9j-32" vertex="1"><mxGeometry y="112" width="401" height="26" as="geometry"/></mxCell><mxCell id="EWmg97Q51qCGuD6CWV9j-48" value="+ update_train(train: Train)" style="text;strokeColor=none;fillColor=none;align=left;verticalAlign=top;spacingLeft=4;spacingRight=4;overflow=hidden;rotatable=0;points=[[0,0.5],[1,0.5]];portConstraint=eastwest;whiteSpace=wrap;html=1;" parent="EWmg97Q51qCGuD6CWV9j-32" vertex="1"><mxGeometry y="138" width="401" height="26" as="geometry"/></mxCell><mxCell id="EWmg97Q51qCGuD6CWV9j-35" value="RouteService" style="swimlane;fontStyle=1;align=center;verticalAlign=top;childLayout=stackLayout;horizontal=1;startSize=26;horizontalStack=0;resizeParent=1;resizeParentMax=0;resizeLast=0;collapsible=1;marginBottom=0;whiteSpace=wrap;html=1;" parent="1" vertex="1"><mxGeometry x="39" y="920" width="401" height="216" as="geometry"/></mxCell><mxCell id="EWmg97Q51qCGuD6CWV9j-36" value="" style="line;strokeWidth=1;fillColor=none;align=left;verticalAlign=middle;spacingTop=-1;spacingLeft=3;spacingRight=3;rotatable=0;labelPosition=right;points=[];portConstraint=eastwest;strokeColor=inherit;" parent="EWmg97Q51qCGuD6CWV9j-35" vertex="1"><mxGeometry y="26" width="401" height="8" as="geometry"/></mxCell><mxCell id="EWmg97Q51qCGuD6CWV9j-37" value="+ get_all_stations(): -&amp;gt; list[Station]" style="text;strokeColor=none;fillColor=none;align=left;verticalAlign=top;spacingLeft=4;spacingRight=4;overflow=hidden;rotatable=0;points=[[0,0.5],[1,0.5]];portConstraint=eastwest;whiteSpace=wrap;html=1;" parent="EWmg97Q51qCGuD6CWV9j-35" vertex="1"><mxGeometry y="34" width="401" height="26" as="geometry"/></mxCell><mxCell id="EWmg97Q51qCGuD6CWV9j-42" value="+ get_route_by_id(id: int): -&amp;gt; list[Station]" style="text;strokeColor=none;fillColor=none;align=left;verticalAlign=top;spacingLeft=4;spacingRight=4;overflow=hidden;rotatable=0;points=[[0,0.5],[1,0.5]];portConstraint=eastwest;whiteSpace=wrap;html=1;" parent="EWmg97Q51qCGuD6CWV9j-35" vertex="1"><mxGeometry y="60" width="401" height="26" as="geometry"/></mxCell><mxCell id="EWmg97Q51qCGuD6CWV9j-43" value="+ add_route(stations: list[Station)" style="text;strokeColor=none;fillColor=none;align=left;verticalAlign=top;spacingLeft=4;spacingRight=4;overflow=hidden;rotatable=0;points=[[0,0.5],[1,0.5]];portConstraint=eastwest;whiteSpace=wrap;html=1;" parent="EWmg97Q51qCGuD6CWV9j-35" vertex="1"><mxGeometry y="86" width="401" height="26" as="geometry"/></mxCell><mxCell id="EWmg97Q51qCGuD6CWV9j-44" value="+ delete_route(id: int)" style="text;strokeColor=none;fillColor=none;align=left;verticalAlign=top;spacingLeft=4;spacingRight=4;overflow=hidden;rotatable=0;points=[[0,0.5],[1,0.5]];portConstraint=eastwest;whiteSpace=wrap;html=1;" parent="EWmg97Q51qCGuD6CWV9j-35" vertex="1"><mxGeometry y="112" width="401" height="26" as="geometry"/></mxCell><mxCell id="EWmg97Q51qCGuD6CWV9j-45" value="+ update_route(id: int, stations: list[Station])" style="text;strokeColor=none;fillColor=none;align=left;verticalAlign=top;spacingLeft=4;spacingRight=4;overflow=hidden;rotatable=0;points=[[0,0.5],[1,0.5]];portConstraint=eastwest;whiteSpace=wrap;html=1;" parent="EWmg97Q51qCGuD6CWV9j-35" vertex="1"><mxGeometry y="138" width="401" height="26" as="geometry"/></mxCell><mxCell id="EWmg97Q51qCGuD6CWV9j-54" value="+ add_station(stations: Station)" style="text;strokeColor=none;fillColor=none;align=left;verticalAlign=top;spacingLeft=4;spacingRight=4;overflow=hidden;rotatable=0;points=[[0,0.5],[1,0.5]];portConstraint=eastwest;whiteSpace=wrap;html=1;" parent="EWmg97Q51qCGuD6CWV9j-35" vertex="1"><mxGeometry y="164" width="401" height="26" as="geometry"/></mxCell><mxCell id="EWmg97Q51qCGuD6CWV9j-55" value="+ delete_station(station: Station)" style="text;strokeColor=none;fillColor=none;align=left;verticalAlign=top;spacingLeft=4;spacingRight=4;overflow=hidden;rotatable=0;points=[[0,0.5],[1,0.5]];portConstraint=eastwest;whiteSpace=wrap;html=1;" parent="EWmg97Q51qCGuD6CWV9j-35" vertex="1"><mxGeometry y="190" width="401" height="26" as="geometry"/></mxCell></root></mxGraphModel></diagram></mxfile>